<?xml version="1.0" encoding="UTF-8"?>
<svg width="18px" height="18px" viewBox="0 0 18 18" version="1.1" xmlns="http://www.w3.org/2000/svg" xmlns:xlink="http://www.w3.org/1999/xlink">
    <title>A3184F44-0A50-4B2E-A625-E9FF74B4D4DF@1x</title>
    <g id="Enterprise-One---Operations---Aug-2021" stroke="none" stroke-width="1" fill="none" fill-rule="evenodd">
        <g id="1.2.12-Operations-Sidebar---Filters---Liquid-Core---inventory" transform="translate(-314.000000, -20.000000)">
            <rect fill="#FFFFFF" x="0" y="0" width="343" height="1293"></rect>
            <rect id="Rectangle" stroke="#E3E9EC" fill="#FFFFFF" x="0.5" y="0.5" width="342" height="1292"></rect>
            <g id="icon/cross_circle_outline_20x20" transform="translate(314.000000, 20.000000)" fill="#00A3AD">
                <path d="M9.10899654,1.27681661 C11.1643599,1.27681661 13.1574394,2.08650519 14.5899654,3.58131488 C17.6418685,6.63321799 17.6418685,11.5536332 14.5899654,14.6055363 C13.1574394,16.0380623 11.1643599,16.8477509 9.10899654,16.8477509 C7.05363322,16.8477509 5.06055363,16.0380623 3.62802768,14.5432526 C0.576124567,11.4913495 0.576124567,6.57093426 3.62802768,3.51903114 C5.06055363,2.08650519 7.05363322,1.27681661 9.10899654,1.27681661 L9.10899654,1.27681661 Z M2.66262976,2.61591696 C-0.887543253,6.16608997 -0.887543253,11.83391 2.66262976,15.384083 C4.40657439,17.1280277 6.71107266,18 9.07785467,18 C11.4446367,18 13.6868512,17.1280277 15.4930796,15.384083 C19.0432526,11.83391 19.0432526,6.16608997 15.4930796,2.61591696 C13.6868512,0.871972318 11.3823529,-3.55271368e-15 9.07785467,-3.55271368e-15 C6.7733564,-3.55271368e-15 4.46885813,0.871972318 2.66262976,2.61591696 Z" id="Shape"></path>
                <polygon id="Fill-7" transform="translate(9.002229, 9.002229) rotate(-315.000000) translate(-9.002229, -9.002229) " points="12.9494606 8.31421711 9.69024048 8.31421711 9.69024048 5.05499696 8.24178999 5.05499696 8.24178999 8.31421711 5.05499696 8.31421711 5.05499696 9.76275939 8.24178999 9.76275939 8.24178999 12.9494606 9.69024048 12.9494606 9.69024048 9.76275939 12.9494606 9.76275939"></polygon>
            </g>
        </g>
    </g>
</svg>