<?xml version="1.0" encoding="UTF-8" standalone="no" ?>
<!DOCTYPE svg PUBLIC "-//W3C//DTD SVG 1.1//EN" "http://www.w3.org/Graphics/SVG/1.1/DTD/svg11.dtd">
<svg xmlns="http://www.w3.org/2000/svg" xmlns:xlink="http://www.w3.org/1999/xlink" version="1.1" width="21" height="21" viewBox="0 0 21 21" xml:space="preserve">
<desc>Created with Fabric.js 5.2.4</desc>
<defs>
</defs>
<rect x="0" y="0" width="100%" height="100%" fill="transparent"></rect>
<g transform="matrix(Infinity NaN NaN Infinity 0 0)" id="cfc1673d-a240-409f-8c01-ab38e1fcc69e"  >
</g>
<g transform="matrix(1 0 0 1 10.5 10.5)" id="7678d40b-2ae3-45b8-9628-537a06c47dd3"  >
<rect style="stroke: none; stroke-width: 1; stroke-dasharray: none; stroke-linecap: butt; stroke-dashoffset: 0; stroke-linejoin: miter; stroke-miterlimit: 4; fill: rgb(255,255,255); fill-rule: nonzero; opacity: 1; visibility: hidden;" vector-effect="non-scaling-stroke"  x="-10.5" y="-10.5" rx="0" ry="0" width="21" height="21" />
</g>
<g transform="matrix(0.04 0 0 0.04 10.5 10.5)"  >
<path style="stroke: rgb(0,0,0); stroke-width: 0; stroke-dasharray: none; stroke-linecap: butt; stroke-dashoffset: 0; stroke-linejoin: miter; stroke-miterlimit: 4; fill: rgb(0,0,0); fill-rule: nonzero; opacity: 1;" vector-effect="non-scaling-stroke"  transform=" translate(-243.1, -243.1)" d="M 481.708 220.456 L 252.90800000000002 15.855999999999995 C 252.508 15.455999999999994 252.108 15.155999999999995 251.608 14.855999999999995 C 246.608 10.055999999999994 238.608 9.855999999999995 233.308 14.555999999999994 L 4.507999999999981 219.15599999999998 C -1.0920000000000183 224.15599999999998 -1.4920000000000186 232.65599999999998 3.4079999999999813 238.25599999999997 C 6.107999999999981 241.25599999999997 9.807999999999982 242.75599999999997 13.507999999999981 242.75599999999997 C 16.70799999999998 242.75599999999997 19.90799999999998 241.65599999999998 22.50799999999998 239.35599999999997 L 63.707999999999984 202.45599999999996 L 63.707999999999984 209.65599999999995 L 63.707999999999984 316.45599999999996 L 63.707999999999984 441.0559999999999 C 63.707999999999984 459.7559999999999 78.90799999999999 475.0559999999999 97.70799999999998 475.0559999999999 C 98.00799999999998 475.0559999999999 98.20799999999998 475.0559999999999 98.50799999999998 475.0559999999999 C 98.80799999999998 475.0559999999999 99.00799999999998 475.0559999999999 99.30799999999998 475.0559999999999 L 169.90799999999996 475.0559999999999 C 187.50799999999995 475.0559999999999 201.80799999999996 460.7559999999999 201.80799999999996 443.15599999999995 L 201.80799999999996 321.85599999999994 C 201.80799999999996 319.15599999999995 204.00799999999995 316.95599999999996 206.70799999999997 316.95599999999996 L 279.60799999999995 316.95599999999996 C 282.30799999999994 316.95599999999996 284.5079999999999 319.15599999999995 284.5079999999999 321.85599999999994 L 284.5079999999999 443.15599999999995 C 284.5079999999999 460.756 298.80799999999994 475.0559999999999 316.4079999999999 475.0559999999999 L 388.6079999999999 475.0559999999999 C 407.6079999999999 475.0559999999999 422.6079999999999 456.35599999999994 422.6079999999999 432.4559999999999 L 422.6079999999999 321.2559999999999 L 422.6079999999999 287.2559999999999 L 422.6079999999999 203.75599999999991 L 463.8079999999999 240.65599999999992 C 466.4079999999999 242.95599999999993 469.6079999999999 244.05599999999993 472.8079999999999 244.05599999999993 C 476.50799999999987 244.05599999999993 480.20799999999986 242.55599999999993 482.9079999999999 239.55599999999993 C 487.708 233.956 487.208 225.456 481.708 220.456 z M 395.508 287.156 L 395.508 321.156 L 395.508 432.256 C 395.508 441.95599999999996 390.70799999999997 447.856 388.508 447.856 L 316.308 447.856 C 313.608 447.856 311.408 445.656 311.408 442.956 L 311.408 321.856 C 311.408 304.256 297.108 289.956 279.50800000000004 289.956 L 206.60800000000003 289.956 C 189.00800000000004 289.956 174.70800000000003 304.25600000000003 174.70800000000003 321.856 L 174.70800000000003 443.156 C 174.70800000000003 445.856 172.50800000000004 448.056 169.80800000000002 448.056 L 99.20800000000003 448.056 C 98.90800000000003 448.056 98.70800000000003 448.056 98.40800000000003 448.056 C 98.10800000000003 448.056 97.90800000000003 448.056 97.60800000000003 448.056 C 93.80800000000004 448.056 90.60800000000003 444.95599999999996 90.60800000000003 441.056 L 90.60800000000003 316.356 L 90.60800000000003 209.55599999999998 L 90.60800000000003 178.25599999999997 L 242.40800000000004 42.65599999999998 L 395.50800000000004 179.55599999999998 L 395.508 287.156 L 395.508 287.156 z" stroke-linecap="round" />
</g>
</svg>